<?xml version="1.0" encoding="UTF-8"?>
<svg xmlns="http://www.w3.org/2000/svg" id="Layer_1" data-name="Layer 1" viewBox="0 0 822.02 324.13">
  <defs>
    <style>.cls-1,.cls-2{fill:#e6713e;}.cls-1{fill-rule:evenodd;}</style>
  </defs>
  <path class="cls-1" d="M272.36,384c0-89.5,68.38-162,152.81-162,68.39,0,126.31,47.68,145.73,113.43H538.48c-18.14-47.52-62.05-81-113.31-81-67.55,0-122.24,58-122.24,129.64s54.69,129.71,122.24,129.71c51.26,0,95.17-33.55,113.31-81.05H570.9c-19.42,65.76-77.34,113.43-145.73,113.43C340.74,546.13,272.36,473.61,272.36,384Z" transform="translate(-272.36 -222)"></path>
  <polygon class="cls-2" points="163.65 120.18 106.7 120.18 106.7 89.6 213.27 89.6 213.27 202.88 184.45 202.88 184.45 141.27 134.77 194.01 134.77 242.36 106.7 242.32 106.7 180.46 163.65 120.18"></polygon>
  <rect class="cls-2" x="272.75" y="130.66" width="24.03" height="69.15"></rect>
  <polygon class="cls-1" points="309.51 199.81 309.51 182.44 352.47 147.84 312.33 147.84 312.33 130.66 387.32 130.66 387.32 149.93 345.36 182.65 388.71 182.65 388.71 199.81 309.51 199.81"></polygon>
  <rect class="cls-2" x="401.03" y="101.01" width="24.03" height="98.8"></rect>
  <path class="cls-1" d="M798.9,369.79c-1.21-6.8-4.18-11.54-8.91-14.26a32.36,32.36,0,0,0-11.33-3.5,143.22,143.22,0,0,0-19.87-1c-10.7,0-18.51.29-23.31.92a33.78,33.78,0,0,0-12.06,3.62,17.62,17.62,0,0,0-7.17,6.59c-1.41,2.51-2.25,6-2.47,10.48h23.94c.24-2.59,1.25-4.17,3.15-4.82s6.28-1,13.26-1c7.48,0,12.4.31,14.83.93a6.59,6.59,0,0,1,4.43,3.14c.75,1.54,1.14,4.16,1.14,7.87v7.68a10.84,10.84,0,0,0-6.62-6.89c-3.18-1.18-8.77-1.76-16.71-1.76-11,0-18.63.31-23,1a23,23,0,0,0-10.69,4.09,14.47,14.47,0,0,0-5,6.85A34.67,34.67,0,0,0,711,401a33.79,33.79,0,0,0,1.54,11.17,14.48,14.48,0,0,0,5,6.75c2.11,1.64,5.32,2.79,9.62,3.49A119.43,119.43,0,0,0,745,423.48c10.68,0,18-.94,21.94-2.76s6.73-5.56,8.31-11.11v12.2h24v-43A64.67,64.67,0,0,0,798.9,369.79Zm-30.44,37.15a77.33,77.33,0,0,1-12.62.67c-7.75,0-12.32-.16-13.82-.43-4.95-.89-7.4-3.37-7.4-7.45,0-3.14,1.25-5.21,3.84-6.24s7.65-1.57,15.17-1.57c8.9,0,14.69.45,17.35,1.43s4,3,4,6.23C775,403.61,772.81,406.09,768.46,406.94Z" transform="translate(-272.36 -222)"></path>
  <polygon class="cls-1" points="539.31 199.81 539.31 182.44 582.23 147.84 542.1 147.84 542.1 130.66 617.09 130.66 617.09 149.93 575.19 182.65 618.48 182.65 618.48 199.81 539.31 199.81"></polygon>
  <path class="cls-1" d="M988.29,369.79c-1.23-6.8-4.18-11.54-8.93-14.26A31.88,31.88,0,0,0,968.1,352a144.18,144.18,0,0,0-19.9-1c-10.74,0-18.53.29-23.33.92a34,34,0,0,0-12.07,3.62,17.62,17.62,0,0,0-7.17,6.59c-1.45,2.51-2.24,6-2.45,10.48h23.93c.23-2.59,1.23-4.17,3.14-4.82s6.31-1,13.31-1c7.44,0,12.35.31,14.77.93,2.17.6,3.7,1.61,4.47,3.14s1.12,4.16,1.12,7.87v7.68a10.79,10.79,0,0,0-6.6-6.89q-4.77-1.77-16.75-1.76c-10.92,0-18.61.31-23,1a23.39,23.39,0,0,0-10.72,4.09,14.38,14.38,0,0,0-4.93,6.85A33.59,33.59,0,0,0,900.38,401a32.74,32.74,0,0,0,1.55,11.17,14.39,14.39,0,0,0,4.93,6.75c2.14,1.64,5.36,2.79,9.64,3.49a119.29,119.29,0,0,0,17.88,1.06c10.68,0,18-.94,21.94-2.76s6.77-5.56,8.31-11.11v12.2h24v-43A64.67,64.67,0,0,0,988.29,369.79Zm-30.48,37.15a76.57,76.57,0,0,1-12.58.67c-7.69,0-12.3-.16-13.84-.43q-7.38-1.33-7.39-7.45c0-3.14,1.24-5.21,3.86-6.24s7.64-1.57,15.17-1.57c8.89,0,14.72.45,17.38,1.43s3.93,3,3.93,6.23C964.34,403.61,962.18,406.09,957.81,406.94Z" transform="translate(-272.36 -222)"></path>
  <polygon class="cls-1" points="732.34 199.81 732.34 101.01 756.35 101.01 756.35 153.77 762.02 153.77 784.79 130.66 816.97 130.66 783.19 162.89 822.02 199.81 789.55 199.81 762.88 171.82 756.35 171.82 756.35 199.81 732.34 199.81"></polygon>
  <polygon class="cls-1" points="352.01 236.67 343.46 268.95 336.83 268.95 332.78 251.03 331.53 245.59 330.98 242.83 330.36 240.09 330.25 240.09 329.64 242.83 329.04 245.59 327.82 251.03 323.7 268.95 316.96 268.95 308.71 236.67 313.39 236.67 317.71 254.52 319.02 260.14 319.67 262.96 320.31 265.76 320.44 265.76 321.03 262.96 321.68 260.14 322.95 254.59 327.1 236.67 333.6 236.67 337.74 254.65 338.99 260.19 339.64 262.96 340.23 265.76 340.31 265.76 340.99 262.96 341.65 260.14 342.96 254.52 347.2 236.67 352.01 236.67"></polygon>
  <polygon class="cls-1" points="400.4 236.67 391.91 268.95 385.29 268.95 381.24 251.03 379.95 245.59 379.41 242.83 378.79 240.09 378.68 240.09 378.08 242.83 377.47 245.59 376.24 251.03 372.17 268.95 365.39 268.95 357.16 236.67 361.82 236.67 366.12 254.52 367.46 260.14 368.11 262.96 368.72 265.76 368.86 265.76 369.46 262.96 370.09 260.14 371.38 254.59 375.57 236.67 382.03 236.67 386.19 254.65 387.45 260.19 388.03 262.96 388.63 265.76 388.72 265.76 389.42 262.96 390.07 260.14 391.37 254.52 395.63 236.67 400.4 236.67"></polygon>
  <polygon class="cls-1" points="448.87 236.67 440.32 268.95 433.72 268.95 429.65 251.03 428.41 245.59 427.81 242.83 427.24 240.09 427.16 240.09 426.5 242.83 425.9 245.59 424.65 251.03 420.55 268.95 413.82 268.95 405.6 236.67 410.27 236.67 414.54 254.52 415.91 260.14 416.56 262.96 417.14 265.76 417.26 265.76 417.86 262.96 418.51 260.14 419.8 254.59 424 236.67 430.46 236.67 434.57 254.65 435.87 260.19 436.45 262.96 437.07 265.76 437.19 265.76 437.84 262.96 438.5 260.14 439.82 254.52 444.1 236.67 448.87 236.67"></polygon>
  <rect class="cls-2" x="475.21" y="222.85" width="4.41" height="5.33"></rect>
  <rect class="cls-2" x="475.21" y="236.67" width="4.41" height="32.27"></rect>
  <polygon class="cls-1" points="491.3 236.67 513.2 236.67 513.2 241.31 495.07 265.01 513.2 265.01 513.2 268.95 489.71 268.95 489.71 264.48 507.96 240.64 491.3 240.64 491.3 236.67"></polygon>
  <rect class="cls-2" x="523.3" y="222.85" width="4.42" height="46.09"></rect>
  <path class="cls-1" d="M835.05,460.6c-1.79-1.61-5.2-2.41-10.27-2.41-4.67,0-7.79.68-9.39,2S813,464,813,467.74h4.41c0-.45,0-.8,0-.94,0-3.31,2.76-4.91,8.24-4.91,3.24,0,5.32.53,6.28,1.63s1.39,3.5,1.39,7.2v3.9l-.07,0c-1.08-2.21-4.29-3.3-9.63-3.3-4.51,0-7.63.72-9.33,2.24s-2.58,4.16-2.58,8.05c0,6.53,3.85,9.82,11.55,9.82,5.22,0,8.64-1.34,10.33-4l.12.05-.39,3.44h4.42V469.67C837.68,465.22,836.83,462.17,835.05,460.6Zm-11,26.92c-3.08,0-5.14-.44-6.18-1.29s-1.51-2.55-1.51-5.17.5-4.16,1.56-4.91,3.22-1.16,6.64-1.16,5.92.46,7.09,1.31,1.85,2.61,1.85,5.12C833.49,485.5,830.35,487.52,824,487.52Z" transform="translate(-272.36 -222)"></path>
  <polygon class="cls-1" points="577.47 236.67 599.35 236.67 599.35 241.31 581.25 265.01 599.35 265.01 599.35 268.95 575.89 268.95 575.89 264.48 594.11 240.64 577.47 240.64 577.47 236.67"></polygon>
  <path class="cls-1" d="M904.09,460.6c-1.76-1.61-5.19-2.41-10.22-2.41-4.69,0-7.81.68-9.41,2s-2.41,3.86-2.41,7.59h4.41c0-.45,0-.8,0-.94,0-3.31,2.74-4.91,8.22-4.91,3.24,0,5.28.53,6.24,1.63s1.45,3.5,1.45,7.2v3.9l-.14,0c-1-2.21-4.24-3.3-9.52-3.3-4.55,0-7.66.72-9.39,2.24s-2.6,4.16-2.6,8.05c0,6.53,3.85,9.82,11.55,9.82,5.24,0,8.65-1.34,10.35-4l.1.05-.35,3.44h4.44V469.67C906.79,465.22,905.92,462.17,904.09,460.6Zm-11,26.92c-3.1,0-5.18-.44-6.15-1.29s-1.52-2.55-1.52-5.17.46-4.16,1.52-4.91,3.24-1.16,6.67-1.16,5.87.46,7.1,1.31,1.81,2.61,1.81,5.12C902.54,485.5,899.4,487.52,893.11,487.52Z" transform="translate(-272.36 -222)"></path>
  <polygon class="cls-1" points="651.9 222.85 651.9 249.69 653.94 249.69 664.72 236.67 670.31 236.67 657.32 251.52 672.7 268.95 666.69 268.95 653.75 253.36 651.9 253.36 651.9 268.95 647.52 268.95 647.52 222.85 651.9 222.85"></polygon>
  <path class="cls-1" d="M991.09,479.36h4.45l0,1.76c0,6.89-4.24,10.34-12.8,10.34q-8.19,0-10.88-3.29c-1.75-2.15-2.6-6.69-2.6-13.52,0-6.4.87-10.74,2.68-13s5.2-3.44,10.26-3.44c4.91,0,8.31.8,10.1,2.35S995,465,995,469.26h-4.45v-.85c0-2.49-.58-4.17-1.78-5s-3.49-1.25-7-1.25-5.5.77-6.44,2.34-1.45,5.12-1.45,10.61c0,5.34.52,8.74,1.64,10.21s3.65,2.19,7.68,2.19c3.39,0,5.51-.51,6.44-1.43S991.09,482.9,991.09,479.36Z" transform="translate(-272.36 -222)"></path>
  <path class="cls-1" d="M1030,461.32c-1.66-2.08-5.31-3.13-10.92-3.13s-9.19,1.05-10.87,3.13-2.49,6.56-2.49,13.53.79,11.4,2.49,13.49,5.3,3.12,10.87,3.12,9.26-1.08,10.92-3.12,2.56-6.57,2.56-13.49S1031.71,463.39,1030,461.32Zm-3.55,24.16c-1,1.36-3.4,2-7.37,2s-6.36-.68-7.31-2-1.4-4.92-1.4-10.63.48-9.3,1.4-10.64,3.38-2,7.31-2,6.39.66,7.37,2,1.39,4.87,1.39,10.64S1027.4,484.13,1026.47,485.48Z" transform="translate(-272.36 -222)"></path>
  <path class="cls-1" d="M1044.31,458.67h4.41l-.08,4.86.08.12c1.74-3.61,5.07-5.46,9.91-5.46,5.15,0,8.31,1.85,9.45,5.46h.1c1.89-3.61,5.43-5.46,10.45-5.46,7.15,0,10.78,3.9,10.78,11.66V491H1085V469.43c0-2.82-.48-4.73-1.39-5.76s-2.81-1.5-5.45-1.5c-3.57,0-5.92.66-7.18,2.07s-1.89,4.12-1.89,8.09V491h-4.43v-21.1l-.06-1.48c0-4.13-2.22-6.2-6.69-6.2-6.13,0-9.16,3.46-9.16,10.47V491h-4.41Z" transform="translate(-272.36 -222)"></path>
  <rect class="cls-2" x="456.9" y="263.99" width="4.06" height="4.65"></rect>
  <rect class="cls-2" x="682.86" y="263.99" width="4.07" height="4.65"></rect>
</svg>
