<?xml version="1.0" encoding="UTF-8"?>
<svg xmlns="http://www.w3.org/2000/svg" width="816.239" height="258.491" viewBox="0 0 816.239 258.491">
  <g id="Group_1" data-name="Group 1" transform="translate(-12.752 -157)">
    <path id="Path_1" data-name="Path 1" d="M445.1,353.3c4.35,0,8.788,2.653,8.788,7.954,0,5.219-4.438,7.871-8.788,7.871-4.435,0-8.87-2.652-8.87-7.871,0-5.3,4.435-7.954,8.87-7.954" fill="#e1146b"></path>
    <rect id="Rectangle_1" data-name="Rectangle 1" width="15.78" height="41.573" transform="translate(437.172 372.807)" fill="#0d3082"></rect>
    <path id="Path_2" data-name="Path 2" d="M486.412,414.38V391.029c0-5.222-2.986-7.018-5.887-7.018-3.751,0-7.247,2.57-7.247,8.129v22.24H457.753V372.125h11.074l3.512,4.617a17.08,17.08,0,0,1,13.306-5.645c8.871.086,16.461,4.789,16.461,19.846V414.38Z" fill="#0d3082"></path>
    <path id="Path_3" data-name="Path 3" d="M521.232,379.48v-2.051c0-3.68,2.219-5.222,4.69-5.222a8.553,8.553,0,0,1,5.715,2.057l4.779-9.5c-3.158-3.078-7.848-4.62-12.71-4.62-8.7,0-18.168,4.878-18.168,17.283v36.954h15.694V391.627h4.279l5.929-12.147Z" fill="#0d3082"></path>
    <path id="Path_4" data-name="Path 4" d="M579.344,393.337c0,15.4-12.2,22.069-24.052,22.069-12.112,0-24.055-6.671-24.055-22.069,0-15.652,11.854-22.154,24.055-22.154,12.453,0,24.052,6.757,24.052,22.154m-15.353,0c0-4.874-3.156-9.24-8.7-9.24s-8.7,4.366-8.7,9.24,3.156,9.154,8.7,9.154c5.289,0,8.7-4.021,8.7-9.154" fill="#0d3082"></path>
    <path id="Path_5" data-name="Path 5" d="M584.343,398.469a27.337,27.337,0,0,0,14.927,4.706c2.818,0,4.266-.684,4.266-2.053s-1.366-2.054-4.438-2.312c-8.186-.255-18.082-3.592-18.082-13.857,0-10.179,9.555-13.856,19.451-13.856,6.82,0,13.134,2.053,17.229,5.132l-6.655,9.409c-2.3-1.452-7.164-2.652-10.574-2.566-2.219,0-3.757.515-3.757,2.053,0,.771.6,1.968,3.158,2.054,8.785.255,19.362,2.738,19.362,13.943,0,10.437-9.466,14.369-19.62,14.369-7.335,0-15.607-2.051-20.383-5.556Z" fill="#0d3082"></path>
    <path id="Path_6" data-name="Path 6" d="M620.894,372.38V361.857l15.607-1.71V372.38h9.47v12.061h-9.552V398.3c.082,2.993,1.789,4.1,4.177,4.1a8.862,8.862,0,0,0,4.607-1.455l3.41,11.635a24.133,24.133,0,0,1-12.112,2.824c-8.358,0-15.862-3.853-15.607-17.108V372.38Z" fill="#0d3082"></path>
    <path id="Path_7" data-name="Path 7" d="M664.761,372.123v23.351c0,5.222,2.986,7.018,5.887,7.018,3.751,0,7.25-2.312,7.25-7.871v-22.5H693.42v42.255H682.349l-3.515-4.617a17.078,17.078,0,0,1-13.3,5.645c-8.874-.086-16.464-4.788-16.464-19.846V372.123Z" fill="#0d3082"></path>
    <path id="Path_8" data-name="Path 8" d="M727.454,361.218h15.694v53.163H731.991l-3.515-4.534c-3.582,4.1-9.211,5.559-13.9,5.3-12.37-.77-19.276-8.555-19.276-21.9,0-12.918,8.186-22.069,20.47-22.069,5.371,0,9.383,1.71,11.685,4.531Zm-16.547,32.034c0,5.9,3.751,9.24,8.444,9.24,5.288,0,8.444-4.366,8.444-8.814,0-5.132-2.9-9.749-8.444-9.749-4.693,0-8.444,3.42-8.444,9.323" fill="#0d3082"></path>
    <path id="Path_9" data-name="Path 9" d="M756.522,397.934c4.349,0,8.788,2.652,8.788,7.954,0,5.218-4.439,7.871-8.788,7.871-4.435,0-8.871-2.653-8.871-7.871,0-5.3,4.436-7.954,8.871-7.954" fill="#e1146b"></path>
    <path id="Path_10" data-name="Path 10" d="M342.726,235.572c-7.486-7.871-20.543-11.328-31.1-11.328-13.246,0-24,5.568-24,14.783,0,12.287,11.711,14.592,28.99,16.127,26.491,2.305,51.644,12.478,51.644,43.579,0,29.955-27.646,43.009-56.636,43.2-23.231.2-47.426-8.826-58.751-27.646l17.856-18.623c10.367,13.248,27.455,19.008,41.083,19.008,15.939,0,26.882-6.336,26.882-15.939.194-11.322-8.829-16.506-27.07-18.044-28.417-2.684-53.759-9.794-53.377-41.468.194-26.688,25.536-40.895,53.182-40.895,20.738,0,36.288,4.607,50.113,20.734Z" fill="#e1146b"></path>
    <path id="Path_11" data-name="Path 11" d="M402.1,216.757v26.494h24v23.04H401.913V302c0,9.988,5.566,12.672,10.749,12.672,3.264,0,8.447-.77,11.52-2.3l6.339,23.037a58.789,58.789,0,0,1-19.967,4.225c-20.546.961-36.1-8.062-36.1-37.632V219.83Z" fill="#e1146b"></path>
    <path id="Path_12" data-name="Path 12" d="M510.587,242.674h25.921v94.848h-24.96l-1.534-11.9c-6.333,9.982-19.967,13.825-29.185,14.016-28.411.194-48.96-18.241-48.96-49.534,0-31.489,21.7-49.921,49.728-49.536,11.9,0,23.039,4.607,28.031,13.057ZM459.519,290.1c0,15.742,11.134,24.96,24.959,24.96,15.551,0,25.15-12.1,25.15-24,0-13.634-8.638-26.115-25.15-26.115-13.825,0-24.959,9.408-24.959,25.156" fill="#e1146b"></path>
    <path id="Path_13" data-name="Path 13" d="M647.79,216.757v26.494h24v23.04H647.6V302c0,9.988,5.565,12.672,10.749,12.672,3.263,0,8.447-.77,11.519-2.3l6.34,23.037a58.794,58.794,0,0,1-19.967,4.225c-20.546.961-36.1-8.062-36.1-37.632V219.83Z" fill="#e1146b"></path>
    <path id="Path_14" data-name="Path 14" d="M712.372,242.675v50.106c0,14.6,6.333,22.088,19.582,22.088,12.866.187,21.5-10.947,21.5-23.234v-48.96H780.72v94.844H755.76l-.955-12.481c-8.45,11.332-19.2,14.6-30.719,14.4-21.31,0-39.552-9.6-39.552-46.464v-50.3Z" fill="#e1146b"></path>
    <path id="Path_15" data-name="Path 15" d="M826.88,242.484V342.13c.767,37.819-30.143,44.926-54.335,30.91l7.871-20.161c10.561,5.378,19.008,4.8,19.008-9.982V242.484ZM797.7,217.524c0,20.738,31.3,20.738,31.3,0s-31.3-20.737-31.3,0" fill="#e1146b"></path>
    <path id="Path_16" data-name="Path 16" d="M611.414,241.011a39.553,39.553,0,0,0-5.97-.448c-10.558,0-19,3.839-25.341,12.675l-2.114-10.37H552.262v94.65h27.65V288.176c0-14.207,10.176-21.884,22.078-21.884a25.53,25.53,0,0,1,9.424,1.752Z" fill="#e1146b"></path>
    <path id="Path_17" data-name="Path 17" d="M125.348,157A112.6,112.6,0,1,0,237.943,269.6,112.6,112.6,0,0,0,125.348,157m0,179.809V281.746H75.658l49.69-82.3v55.064h49.689Z" fill="#e1146b"></path>
  </g>
</svg>
