<svg xmlns="http://www.w3.org/2000/svg" viewBox="0 0 129.79 129.79"><defs><style>.cls-1{fill:#4ea948;}</style></defs><g id="Layer_2" data-name="Layer 2"><g id="Layer_1-2" data-name="Layer 1"><path class="cls-1" d="M113.24,68a56.37,56.37,0,0,0-5-5,36.1,36.1,0,0,0-8.54-5.68,32.37,32.37,0,0,0-10-2.79,48.7,48.7,0,0,0-16.3,1.17,85.19,85.19,0,0,0-14.84,5c-2.61,1.12-5.15,2.32-7.66,3.52a30.18,30.18,0,0,1-.17-8.49c.64-5.58,2.66-10.88,4.67-16.18L95,0l18.23,68"/><path class="cls-1" d="M54.08,109.5,0,95,49.8,45.22a55.9,55.9,0,0,0-1.86,6.84,36.66,36.66,0,0,0-.65,10.23,32.66,32.66,0,0,0,2.58,10A48.47,48.47,0,0,0,59,85.86,84.81,84.81,0,0,0,70.82,96.2c2.28,1.69,4.58,3.3,6.88,4.86a30.27,30.27,0,0,1-7.27,4.4c-5.15,2.24-10.75,3.14-16.35,4"/><path class="cls-1" d="M115.3,75.71c-3.58-4.4-7.16-8.79-11.68-12.14a30,30,0,0,0-7.44-4.09c-.21,2.77-.44,5.57-.77,8.39a85.37,85.37,0,0,1-3.07,15.37,48.49,48.49,0,0,1-7.13,14.7,32.44,32.44,0,0,1-7.4,7.25,36.31,36.31,0,0,1-9.19,4.56,57.74,57.74,0,0,1-6.85,1.81l68,18.23L115.3,75.71"/></g></g></svg>